<svg width="91" height="92" viewBox="0 0 91 92" fill="none" xmlns="http://www.w3.org/2000/svg">
<path fill-rule="evenodd" clip-rule="evenodd" d="M8.10917 48.2845C10.9354 36.3962 10.7503 24.9477 11.0891 12.889C11.1549 10.5341 9.36669 8.57619 7.09718 8.50526C4.8263 8.43432 2.93111 10.2928 2.86391 12.6478C2.54303 24.0822 2.80224 34.9632 0.119966 46.2558C-0.423071 48.5398 0.927693 50.8522 3.13275 51.4055C5.33644 51.973 7.5675 50.5686 8.10917 48.2845Z" fill="#EEC197"/>
<path fill-rule="evenodd" clip-rule="evenodd" d="M32.1207 71.3236C51.2943 53.1931 69.3599 29.8704 81.9869 6.32065C83.088 4.26359 82.3708 1.66733 80.3852 0.5324C78.3995 -0.602526 75.8928 0.135237 74.7916 2.1923C62.5815 24.9618 45.1098 47.5186 26.5697 65.039C24.894 66.6279 24.7774 69.3234 26.3092 71.0541C27.8409 72.7849 30.445 72.9125 32.1207 71.3236Z" fill="#EEC197"/>
<path fill-rule="evenodd" clip-rule="evenodd" d="M36.9779 91.1281C54.5141 94.1215 72.5893 89.0144 88.5348 81.7934C90.6151 80.8429 91.564 78.332 90.6549 76.1898C89.7443 74.0334 87.3157 73.0545 85.2354 73.9908C70.7133 80.5734 54.2892 85.4536 38.3177 82.7298C36.0769 82.3467 33.9583 83.9214 33.5894 86.2338C33.2191 88.5462 34.7386 90.7451 36.9779 91.1281Z" fill="#EEC197"/>
</svg>
