<svg width="100" height="141" viewBox="0 0 100 141" fill="none" xmlns="http://www.w3.org/2000/svg">
<g clip-path="url(#clip0_57_2)">
<path d="M36.9542 6.34888C36.7949 6.22762 36.6215 6.20182 36.4196 6.36693C36.4196 6.36693 35.7999 6.95774 34.7623 7.97422C34.5605 8.13933 34.6046 8.43859 34.7497 8.6553C34.8947 8.87201 35.1691 8.81524 35.3709 8.65013C36.4085 7.63365 37.014 7.13831 37.014 7.13831C37.2159 6.97319 37.2585 6.68683 37.1134 6.47012C37.0267 6.45722 37.0409 6.36177 36.9542 6.34888Z" fill="white"/>
<path d="M32.2138 11.4003C32.3588 11.617 32.4029 11.9163 32.2011 12.0814C31.1351 13.2888 30.1558 14.5091 29.1766 15.7293C29.0615 15.9074 28.7871 15.9641 28.5411 15.83C28.3819 15.7087 28.3377 15.4094 28.4671 15.136C29.4463 13.9157 30.4398 12.5999 31.4916 11.488C31.7076 11.2274 31.9678 11.2661 32.2138 11.4003C32.127 11.3874 32.127 11.3874 32.2138 11.4003ZM26.3098 18.9129C26.469 19.0342 26.5131 19.3335 26.3838 19.6069C26.1394 20.0584 25.8224 20.4015 25.578 20.853C24.9882 21.8385 24.4126 22.7286 23.8228 23.7141C23.6935 23.9876 23.4192 24.0443 23.2599 23.9231C23.0139 23.7889 22.9698 23.4897 23.0849 23.3117C23.6747 22.3261 24.2503 21.4361 24.8401 20.4506C25.0845 19.9991 25.4015 19.6559 25.6459 19.2045C25.8903 18.753 26.1505 18.7917 26.3098 18.9129ZM21.7097 27.7903C21.0489 29.2531 20.3881 30.7159 19.9008 32.2045C19.7715 32.478 19.5838 32.5476 19.3237 32.5089C19.0777 32.3748 19.0194 32.171 19.062 31.8846C19.636 30.4089 20.2243 28.8378 20.885 27.375C21.0144 27.1015 21.2887 27.0448 21.448 27.166C21.448 27.166 21.448 27.166 21.5347 27.1789C21.7807 27.3131 21.8248 27.6123 21.7097 27.7903ZM51.0692 55.6708C52.2139 56.9143 52.8823 58.3797 53.1613 60.0798C53.2054 60.3791 53.0903 60.5571 52.816 60.6138C52.5416 60.6706 52.3823 60.5493 52.3382 60.2501C52.1176 58.7538 51.4207 57.4793 50.4353 56.3571C50.2902 56.1404 50.2461 55.8411 50.4479 55.676C50.5631 55.498 50.8232 55.5367 51.0692 55.6708C50.9825 55.6579 50.9825 55.6579 51.0692 55.6708ZM47.4806 53.576C47.438 53.8623 47.1494 54.0146 46.9902 53.8933C45.8044 53.5218 44.4326 53.8056 43.0623 54.675C42.8605 54.8402 42.6145 54.706 42.4695 54.4893C42.3244 54.2726 42.4537 53.9991 42.6556 53.834C44.2135 52.8949 45.8597 52.5544 47.2189 52.9517C47.3056 52.9646 47.3056 52.9646 47.3923 52.9775C47.4506 53.1813 47.509 53.3851 47.4806 53.576ZM18.5113 36.7787C18.0965 38.3756 17.8694 39.9029 17.628 41.5256C17.5854 41.812 17.3836 41.9771 17.1234 41.9384C16.8632 41.8997 16.7182 41.683 16.7608 41.3966C16.9154 39.761 17.2435 38.1512 17.6583 36.5542C17.7009 36.2678 17.9895 36.1156 18.1487 36.2369C18.2354 36.2498 18.2354 36.2498 18.3222 36.2627C18.4814 36.3839 18.6265 36.6006 18.5113 36.7787ZM52.8566 65.108C52.456 66.6095 51.7953 68.0723 50.8743 69.4964L50.7734 69.5789C50.6583 69.7569 50.3839 69.8137 50.138 69.6795C49.9787 69.5583 49.9346 69.259 50.0639 68.9856L50.1648 68.903C50.9848 67.5615 51.6314 66.1941 52.0178 64.7881C52.0604 64.5017 52.349 64.3495 52.5949 64.4837C52.6817 64.4966 52.6817 64.4966 52.7684 64.5095C52.8267 64.7133 52.885 64.9171 52.8566 65.108ZM39.6011 57.0873C39.7604 57.2085 39.7903 57.6032 39.5885 57.7683C39.1564 58.2895 38.7101 58.9061 38.3506 59.5356C37.8901 60.2476 37.5163 60.9726 37.1426 61.6975C37.0133 61.971 36.7389 62.0277 36.5797 61.9065C36.3337 61.7723 36.2896 61.4731 36.4047 61.2951C36.7926 60.4747 37.2531 59.7626 37.7136 59.0506C38.1598 58.434 38.6061 57.8174 39.0524 57.2008C39.1817 56.9273 39.4561 56.8705 39.6011 57.0873C39.6011 57.0873 39.6153 56.9918 39.6011 57.0873ZM17.4527 46.2803C17.4857 47.8463 17.6054 49.4252 17.8119 51.017C17.856 51.3163 17.6541 51.4814 17.4665 51.551C17.1921 51.6078 17.0471 51.3911 16.9888 51.1873C16.7823 49.5955 16.5901 47.9083 16.6438 46.3552C16.6864 46.0688 16.8015 45.8908 17.0758 45.834C17.1626 45.8469 17.2493 45.8598 17.336 45.8727C17.3076 46.0636 17.3801 46.172 17.4527 46.2803ZM47.7473 72.6413C47.8924 72.858 47.8498 73.1443 47.648 73.3095C46.4227 74.3956 45.1392 75.2779 43.7831 76.0519C43.5954 76.1216 43.3353 76.0829 43.1902 75.8662C43.1319 75.6623 43.1745 75.376 43.3763 75.2109C44.7182 74.5323 45.915 73.6371 47.0394 72.6335C47.2412 72.4684 47.4146 72.4942 47.5739 72.6155C47.6748 72.5329 47.6606 72.6284 47.7473 72.6413ZM35.3479 66.0163C34.8606 67.5048 34.4458 69.1018 34.2186 70.6291C34.176 70.9154 33.9742 71.0806 33.714 71.0419C33.4538 71.0032 33.3088 70.7865 33.3514 70.5001C33.6795 68.8902 34.0075 67.2804 34.5091 65.6964C34.5517 65.41 34.826 65.3532 35.0862 65.3919L35.1729 65.4048C35.4047 65.6344 35.463 65.8382 35.3479 66.0163ZM18.7056 55.7356C19.0997 57.2577 19.5805 58.7927 20.1764 60.1497C20.2348 60.3536 20.1922 60.6399 19.9903 60.805C19.8027 60.8747 19.5425 60.836 19.4117 60.5238C18.8299 59.0714 18.3491 57.5363 17.8683 56.0013C17.81 55.7975 17.9393 55.524 18.1411 55.3589C18.242 55.2764 18.4155 55.3022 18.488 55.4105C18.6473 55.5318 18.7198 55.6401 18.7056 55.7356ZM39.7685 76.8207C39.8126 77.12 39.6108 77.2851 39.3364 77.3419C37.8054 77.5044 36.3169 77.3806 34.7843 76.9575C34.5241 76.9188 34.3932 76.6067 34.5084 76.4286C34.551 76.1423 34.8395 75.9901 34.9988 76.1113C36.4446 76.5215 37.8464 76.6324 39.204 76.4441C39.2908 76.457 39.3775 76.4699 39.4642 76.4828C39.7102 76.6169 39.7827 76.7253 39.7685 76.8207ZM22.2102 64.3549C22.9796 65.7377 23.7632 67.0251 24.6477 68.2299C24.7927 68.4466 24.7501 68.733 24.5483 68.8981C24.3464 69.0632 24.0863 69.0245 23.9412 68.8078C23.0567 67.603 22.2006 66.2073 21.4312 64.8245C21.2862 64.6078 21.4155 64.3343 21.6173 64.1692C21.805 64.0995 21.9784 64.1253 22.0652 64.1382C22.1377 64.2466 22.2102 64.3549 22.2102 64.3549ZM33.6822 75.4277C33.6285 76.9807 33.5606 78.6293 33.6803 80.2082C33.7244 80.5074 33.5226 80.6726 33.2482 80.7293C32.9738 80.7861 32.8288 80.5694 32.7847 80.2701C32.6791 78.5958 32.6603 76.9343 32.8008 75.3941C32.8434 75.1078 33.0452 74.9426 33.2186 74.9684C33.3054 74.9813 33.3921 74.9942 33.4788 75.0071C33.6381 75.1284 33.6964 75.3322 33.6822 75.4277ZM27.6906 71.6095C28.777 72.6492 29.9642 73.6063 31.1799 74.3725C31.4259 74.5067 31.47 74.8059 31.3549 74.9839C31.2256 75.2574 30.9512 75.3142 30.7919 75.1929C29.5763 74.4267 28.3023 73.4567 27.1293 72.4041C26.97 72.2828 26.9401 71.8881 27.1419 71.723C27.1703 71.5321 27.4447 71.4753 27.6906 71.6095C27.6039 71.5966 27.6039 71.5966 27.6906 71.6095ZM34.2996 84.9835C34.607 86.4927 35.0011 88.0149 35.4819 89.5499C35.5403 89.7537 35.4977 90.0401 35.2091 90.1923C35.0215 90.2619 34.7613 90.2232 34.6304 89.9111C34.0629 88.3632 33.683 86.7456 33.3756 85.2364C33.3315 84.9371 33.4466 84.7591 33.721 84.7023C33.8219 84.6198 33.9812 84.741 34.0679 84.7539C34.1546 84.7668 34.2271 84.8752 34.2996 84.9835ZM37.2413 93.8118C37.924 95.1817 38.6934 96.5645 39.477 97.8519C39.622 98.0686 39.5794 98.355 39.3776 98.5201C39.1757 98.6852 38.9156 98.6465 38.7705 98.4298C37.9144 97.0341 37.145 95.6513 36.4624 94.2814C36.3173 94.0647 36.4466 93.7912 36.6485 93.6261C36.8361 93.5564 37.0096 93.5822 37.0821 93.6906C37.1688 93.7035 37.2413 93.8118 37.2413 93.8118ZM42.1021 101.657C42.9866 102.862 43.972 103.984 45.0299 105.215C45.175 105.432 45.2191 105.731 45.0173 105.896C44.8154 106.061 44.5411 106.118 44.396 105.901C43.3239 104.766 42.3526 103.548 41.4681 102.343C41.3231 102.127 41.3657 101.84 41.5675 101.675C41.7694 101.51 41.9428 101.536 42.1021 101.657C42.1163 101.562 42.1021 101.657 42.1021 101.657ZM48.188 108.416C49.2744 109.456 50.3607 110.496 51.548 111.453C51.7072 111.574 51.7513 111.873 51.622 112.147C51.5069 112.325 51.2325 112.382 50.9866 112.248C49.7993 111.29 48.713 110.251 47.6266 109.211C47.4674 109.09 47.4374 108.695 47.6393 108.53C47.7686 108.256 47.942 108.282 48.188 108.416Z" fill="white"/>
<path d="M56.8898 115.467C56.8898 115.467 56.1661 114.969 55.0371 114.216C54.8779 114.095 54.6035 114.151 54.4017 114.317C54.2866 114.495 54.3307 114.794 54.4757 115.011C55.5905 115.859 56.2417 116.249 56.3284 116.262C56.5744 116.396 56.762 116.326 56.8913 116.053C57.1799 115.901 57.1357 115.601 56.8898 115.467Z" fill="white"/>
<path d="M64.0567 115.557L64.4285 119.613C64.4285 119.613 73.5103 128.281 73.6695 128.402C73.7279 128.606 76.9961 135.239 76.9961 135.239L70.3818 130.841L60.9942 121.249L64.0567 115.557Z" fill="white"/>
<path d="M54.9942 125.235L76.9961 135.239L60.98 121.344L54.9942 125.235Z" fill="white"/>
<path d="M64.4285 119.613L70.818 115.392L76.9961 135.239L64.4285 119.613Z" fill="white"/>
</g>
<defs>
<clipPath id="clip0_57_2">
<rect width="81.1885" height="130.476" fill="white" transform="translate(80.3052 141) rotate(-171.54)"/>
</clipPath>
</defs>
</svg>
